<svg  width="35.93" height="32" viewBox="0 0 670 200" fill="none" xmlns="http://www.w3.org/2000/svg">
<path d="M314.864 38V59.12H284.624V150H262.544V59.12H232.464V38H314.864Z" fill="#1B1C1F"/>
<path d="M376.659 140.08C368.446 148.187 358.419 152.24 346.579 152.24C334.739 152.24 324.713 148.187 316.499 140.08C308.393 131.867 304.339 121.84 304.339 110C304.339 98.16 308.393 88.1867 316.499 80.08C324.713 71.8667 334.739 67.76 346.579 67.76C358.419 67.76 368.446 71.8667 376.659 80.08C384.873 88.1867 388.979 98.16 388.979 110C388.979 121.84 384.873 131.867 376.659 140.08ZM331.059 125.84C335.219 130 340.393 132.08 346.579 132.08C352.766 132.08 357.939 130 362.099 125.84C366.259 121.68 368.339 116.4 368.339 110C368.339 103.6 366.259 98.32 362.099 94.16C357.939 90 352.766 87.92 346.579 87.92C340.393 87.92 335.219 90 331.059 94.16C327.006 98.32 324.979 103.6 324.979 110C324.979 116.4 327.006 121.68 331.059 125.84Z" fill="#1B1C1F"/>
<path d="M460.939 38H481.579V150H460.939V140.56C454.859 148.347 446.219 152.24 435.019 152.24C424.246 152.24 415.019 148.187 407.339 140.08C399.766 131.867 395.979 121.84 395.979 110C395.979 98.16 399.766 88.1867 407.339 80.08C415.019 71.8667 424.246 67.76 435.019 67.76C446.219 67.76 454.859 71.6533 460.939 79.44V38ZM422.859 126.32C427.126 130.48 432.459 132.56 438.859 132.56C445.259 132.56 450.539 130.48 454.699 126.32C458.859 122.053 460.939 116.613 460.939 110C460.939 103.387 458.859 98 454.699 93.84C450.539 89.5733 445.259 87.44 438.859 87.44C432.459 87.44 427.126 89.5733 422.859 93.84C418.699 98 416.619 103.387 416.619 110C416.619 116.613 418.699 122.053 422.859 126.32Z" fill="#1B1C1F"/>
<path d="M565.416 140.08C557.202 148.187 547.176 152.24 535.336 152.24C523.496 152.24 513.469 148.187 505.256 140.08C497.149 131.867 493.096 121.84 493.096 110C493.096 98.16 497.149 88.1867 505.256 80.08C513.469 71.8667 523.496 67.76 535.336 67.76C547.176 67.76 557.202 71.8667 565.416 80.08C573.629 88.1867 577.736 98.16 577.736 110C577.736 121.84 573.629 131.867 565.416 140.08ZM519.816 125.84C523.976 130 529.149 132.08 535.336 132.08C541.522 132.08 546.696 130 550.856 125.84C555.016 121.68 557.096 116.4 557.096 110C557.096 103.6 555.016 98.32 550.856 94.16C546.696 90 541.522 87.92 535.336 87.92C529.149 87.92 523.976 90 519.816 94.16C515.762 98.32 513.736 103.6 513.736 110C513.736 116.4 515.762 121.68 519.816 125.84Z" fill="#1B1C1F"/>
<path d="M657.216 140.08C649.002 148.187 638.976 152.24 627.136 152.24C615.296 152.24 605.269 148.187 597.056 140.08C588.949 131.867 584.896 121.84 584.896 110C584.896 98.16 588.949 88.1867 597.056 80.08C605.269 71.8667 615.296 67.76 627.136 67.76C638.976 67.76 649.002 71.8667 657.216 80.08C665.429 88.1867 669.536 98.16 669.536 110C669.536 121.84 665.429 131.867 657.216 140.08ZM611.616 125.84C615.776 130 620.949 132.08 627.136 132.08C633.322 132.08 638.496 130 642.656 125.84C646.816 121.68 648.896 116.4 648.896 110C648.896 103.6 646.816 98.32 642.656 94.16C638.496 90 633.322 87.92 627.136 87.92C620.949 87.92 615.776 90 611.616 94.16C607.562 98.32 605.536 103.6 605.536 110C605.536 116.4 607.562 121.68 611.616 125.84Z" fill="#1B1C1F"/>
<path d="M18.75 37.5C18.75 30.5965 24.3464 25 31.25 25H87.5V175H31.25C24.3464 175 18.75 169.404 18.75 162.5V37.5Z" fill="#1B1C1F"/>
<path d="M18.75 37.5C18.75 30.5965 24.3464 25 31.25 25H87.5V175H31.25C24.3464 175 18.75 169.404 18.75 162.5V37.5Z" fill="white" fill-opacity="0.4"/>
<path d="M168.75 172.257C175.492 172.271 181.25 166.798 181.25 159.753V33.9976C181.25 26.9517 175.492 21.4791 168.75 21.4934V172.257Z" fill="#1B1C1F"/>
<path d="M168.75 172.257C175.492 172.271 181.25 166.798 181.25 159.753V33.9976C181.25 26.9517 175.492 21.4791 168.75 21.4934V172.257Z" fill="white" fill-opacity="0.4"/>
<path d="M93.75 25L147.764 15.1793C155.437 13.7842 162.5 19.6789 162.5 27.4777V172.522C162.5 180.321 155.437 186.216 147.764 184.821L93.75 175V25Z" fill="#1B1C1F"/>
<path d="M93.75 25L147.764 15.1793C155.437 13.7842 162.5 19.6789 162.5 27.4777V172.522C162.5 180.321 155.437 186.216 147.764 184.821L93.75 175V25Z" fill="white" fill-opacity="0.02"/>
</svg>
